<svg width="41" height="37" viewBox="0 0 41 37" fill="none" xmlns="http://www.w3.org/2000/svg">
<path d="M40.0081 7.58241C39.3719 6.09862 38.4546 4.75403 37.3076 3.6239C36.1597 2.49039 34.8064 1.58961 33.3211 0.97054C31.7809 0.326053 30.129 -0.0038332 28.4612 3.36038e-05C26.1215 3.36038e-05 23.8387 0.645444 21.8549 1.86455C21.3803 2.15618 20.9295 2.4765 20.5023 2.8255C20.0752 2.4765 19.6244 2.15618 19.1498 1.86455C17.166 0.645444 14.8832 3.36038e-05 12.5434 3.36038e-05C10.8586 3.36038e-05 9.22606 0.32513 7.68363 0.97054C6.19342 1.59205 4.85032 2.48606 3.69707 3.6239C2.54854 4.75275 1.63107 6.09767 0.996642 7.58241C0.33696 9.12662 0 10.7664 0 12.4541C0 14.0461 0.322722 15.705 0.963421 17.3927C1.49971 18.803 2.26855 20.2659 3.25095 21.7432C4.80761 24.081 6.94802 26.5192 9.60573 28.9909C14.0099 33.0881 18.3714 35.9183 18.5565 36.0331L19.6813 36.7598C20.1796 37.0801 20.8203 37.0801 21.3186 36.7598L22.4434 36.0331C22.6285 35.9136 26.9853 33.0881 31.3942 28.9909C34.0519 26.5192 36.1923 24.081 37.749 21.7432C38.7314 20.2659 39.505 18.803 40.0365 17.3927C40.6772 15.705 40.9999 14.0461 40.9999 12.4541C41.0047 10.7664 40.6677 9.12662 40.0081 7.58241V7.58241Z" fill="#15F4EE"/>
</svg>
