<svg width="31" height="29" viewBox="0 0 31 29" fill="none" xmlns="http://www.w3.org/2000/svg">
<path d="M29.4779 13.9869L16.6482 1.16385L15.7882 0.303892C15.5923 0.109244 15.3273 0 15.0511 0C14.7749 0 14.5099 0.109244 14.314 0.303892L0.624356 13.9869C0.42358 14.1869 0.264904 14.4251 0.157693 14.6874C0.0504826 14.9497 -0.00308997 15.2309 0.000137626 15.5142C0.0134189 16.683 0.98627 17.616 2.15502 17.616H3.56615V28.4302H26.5361V17.616H27.9771C28.5448 17.616 29.0794 17.3935 29.4812 16.9918C29.679 16.7946 29.8357 16.5601 29.9423 16.3019C30.0489 16.0437 30.1032 15.767 30.1021 15.4877C30.1021 14.9232 29.8796 14.3886 29.4779 13.9869ZM16.9105 26.0396H13.1917V19.2662H16.9105V26.0396ZM24.1454 15.2254V26.0396H19.0355V18.4693C19.0355 17.7355 18.4411 17.1412 17.7074 17.1412H12.3949C11.6611 17.1412 11.0667 17.7355 11.0667 18.4693V26.0396H5.95677V15.2254H2.76928L15.0544 2.95018L15.8214 3.71717L27.3363 15.2254H24.1454Z"/>
</svg>
