<svg width="31" height="32" viewBox="0 0 31 32" fill="none" xmlns="http://www.w3.org/2000/svg">
<path d="M17.9385 31.1364H12.2717C11.9166 31.1365 11.5722 31.0152 11.2956 30.7926C11.0189 30.5701 10.8267 30.2596 10.7507 29.9128L10.117 26.9797C9.27178 26.6094 8.47029 26.1462 7.72732 25.5988L4.86744 26.5096C4.52893 26.6175 4.16368 26.6064 3.83234 26.4781C3.501 26.3499 3.22351 26.1121 3.04596 25.8043L0.206312 20.8988C0.0306171 20.5907 -0.0353343 20.2322 0.0192477 19.8818C0.0738296 19.5314 0.245713 19.2099 0.506778 18.9699L2.72525 16.946C2.62436 16.0292 2.62436 15.1041 2.72525 14.1873L0.506778 12.1681C0.245343 11.928 0.0732261 11.6062 0.0186352 11.2555C-0.0359557 10.9047 0.0302185 10.5459 0.206312 10.2377L3.03973 5.329C3.21729 5.02124 3.49477 4.78348 3.82611 4.65519C4.15745 4.5269 4.5227 4.51581 4.86121 4.62376L7.72109 5.5345C8.10096 5.25428 8.49639 4.99273 8.90428 4.75609C9.29815 4.53502 9.70293 4.33419 10.117 4.15516L10.7522 1.22522C10.8278 0.878356 11.0197 0.567754 11.2961 0.344912C11.5725 0.12207 11.9167 0.000373584 12.2717 0H17.9385C18.2935 0.000373584 18.6377 0.12207 18.9141 0.344912C19.1905 0.567754 19.3824 0.878356 19.458 1.22522L20.0994 4.15672C20.9442 4.52708 21.7451 4.99023 22.4876 5.53762L25.349 4.62688C25.6873 4.51932 26.0522 4.53062 26.3832 4.65889C26.7142 4.78715 26.9914 5.02469 27.1689 5.33212L30.0023 10.2408C30.3635 10.8744 30.239 11.6762 29.7019 12.1697L27.4834 14.1935C27.5843 15.1103 27.5843 16.0354 27.4834 16.9522L29.7019 18.9761C30.239 19.4712 30.3635 20.2714 30.0023 20.905L27.1689 25.8137C26.9914 26.1214 26.7139 26.3592 26.3825 26.4875C26.0512 26.6158 25.6859 26.6269 25.3474 26.5189L22.4876 25.6082C21.7452 26.1552 20.9442 26.6178 20.0994 26.9875L19.458 29.9128C19.3821 30.2594 19.19 30.5696 18.9137 30.7921C18.6374 31.0147 18.2933 31.1362 17.9385 31.1364ZM8.28622 22.152L9.56281 23.0861C9.85083 23.2978 10.1497 23.4925 10.4611 23.6699C10.7538 23.8396 11.0527 23.9922 11.3625 24.1307L12.815 24.7675L13.5265 28.0228H16.6868L17.3983 24.7659L18.8508 24.1292C19.4844 23.849 20.0869 23.5018 20.6458 23.0923L21.9224 22.1583L25.1015 23.1702L26.6816 20.4333L24.2172 18.1868L24.3915 16.6113C24.4694 15.9216 24.4694 15.2257 24.3915 14.5376L24.2172 12.9621L26.6832 10.7109L25.1015 7.97249L21.924 8.98442L20.6458 8.05033C20.0866 7.63885 19.4848 7.28863 18.8508 7.0057L17.3983 6.36896L16.6868 3.11364H13.5265L12.8103 6.37052L11.3625 7.0057C10.7276 7.28376 10.1256 7.63151 9.56748 8.04254L8.28933 8.97664L5.11342 7.9647L3.53013 10.7109L5.99458 12.9543L5.82021 14.5314C5.74237 15.2211 5.74237 15.917 5.82021 16.6051L5.99458 18.1806L3.53013 20.4271L5.1103 23.164L8.28622 22.152ZM15.0989 21.7955C13.4473 21.7955 11.8634 21.1394 10.6955 19.9716C9.52767 18.8037 8.87158 17.2198 8.87158 15.5682C8.87158 13.9166 9.52767 12.3327 10.6955 11.1649C11.8634 9.99702 13.4473 9.34093 15.0989 9.34093C16.7505 9.34093 18.3344 9.99702 19.5022 11.1649C20.6701 12.3327 21.3262 13.9166 21.3262 15.5682C21.3262 17.2198 20.6701 18.8037 19.5022 19.9716C18.3344 21.1394 16.7505 21.7955 15.0989 21.7955ZM15.0989 12.4546C14.4892 12.4552 13.893 12.6348 13.3845 12.9712C12.8759 13.3075 12.4773 13.7857 12.2381 14.3466C11.9988 14.9074 11.9295 15.5261 12.0387 16.126C12.148 16.7258 12.4309 17.2804 12.8524 17.7209C13.274 18.1614 13.8156 18.4685 14.4101 18.604C15.0045 18.7395 15.6257 18.6975 16.1965 18.4832C16.7673 18.2688 17.2627 17.8916 17.621 17.3984C17.9794 16.9051 18.1851 16.3174 18.2125 15.7083V16.3311V15.5682C18.2125 14.7424 17.8845 13.9505 17.3006 13.3665C16.7166 12.7826 15.9247 12.4546 15.0989 12.4546Z" />
</svg>
