<svg width="40" height="40" viewBox="0 0 40 40" fill="none" xmlns="http://www.w3.org/2000/svg">
<path d="M36.0547 11.0781C35.5311 9.86577 34.7761 8.76714 33.832 7.84375C32.8872 6.9176 31.7733 6.1816 30.5508 5.67578C29.2831 5.14919 27.9235 4.87965 26.5508 4.88281C24.625 4.88281 22.7461 5.41015 21.1133 6.40625C20.7227 6.64453 20.3516 6.90625 20 7.1914C19.6484 6.90625 19.2773 6.64453 18.8867 6.40625C17.2539 5.41015 15.375 4.88281 13.4492 4.88281C12.0625 4.88281 10.7188 5.14843 9.44922 5.67578C8.22266 6.18359 7.11719 6.91406 6.16797 7.84375C5.22264 8.7661 4.46749 9.86498 3.94531 11.0781C3.40234 12.3398 3.125 13.6797 3.125 15.0586C3.125 16.3594 3.39063 17.7148 3.91797 19.0937C4.35938 20.2461 4.99219 21.4414 5.80078 22.6484C7.08203 24.5586 8.84375 26.5508 11.0312 28.5703C14.6562 31.918 18.2461 34.2305 18.3984 34.3242L19.3242 34.918C19.7344 35.1797 20.2617 35.1797 20.6719 34.918L21.5977 34.3242C21.75 34.2266 25.3359 31.918 28.9648 28.5703C31.1523 26.5508 32.9141 24.5586 34.1953 22.6484C35.0039 21.4414 35.6406 20.2461 36.0781 19.0937C36.6055 17.7148 36.8711 16.3594 36.8711 15.0586C36.875 13.6797 36.5977 12.3398 36.0547 11.0781ZM20 31.8281C20 31.8281 6.09375 22.918 6.09375 15.0586C6.09375 11.0781 9.38672 7.85156 13.4492 7.85156C16.3047 7.85156 18.7812 9.44531 20 11.7734C21.2188 9.44531 23.6953 7.85156 26.5508 7.85156C30.6133 7.85156 33.9062 11.0781 33.9062 15.0586C33.9062 22.918 20 31.8281 20 31.8281Z" fill="white"/>
</svg>
