<svg width="38" height="38" viewBox="0 0 38 38" fill="none" xmlns="http://www.w3.org/2000/svg">
<path d="M19 0.625C8.85273 0.625 0.625 8.85273 0.625 19C0.625 29.1473 8.85273 37.375 19 37.375C29.1473 37.375 37.375 29.1473 37.375 19C37.375 8.85273 29.1473 0.625 19 0.625ZM24.9104 19.283L15.9525 25.8004C15.9034 25.8357 15.8455 25.8567 15.7852 25.8613C15.7249 25.8658 15.6645 25.8536 15.6107 25.8261C15.5569 25.7985 15.5117 25.7567 15.4801 25.7051C15.4485 25.6535 15.4317 25.5943 15.4316 25.5338V12.5072C15.4314 12.4466 15.448 12.3872 15.4796 12.3354C15.5111 12.2837 15.5563 12.2417 15.6103 12.2141C15.6642 12.1865 15.7247 12.1743 15.7852 12.179C15.8456 12.1837 15.9035 12.205 15.9525 12.2406L24.9104 18.7539C24.9527 18.7838 24.9872 18.8235 25.011 18.8695C25.0348 18.9155 25.0473 18.9666 25.0473 19.0185C25.0473 19.0703 25.0348 19.1214 25.011 19.1674C24.9872 19.2134 24.9527 19.2531 24.9104 19.283Z" fill="white"/>
</svg>
