<svg width="29" height="29" viewBox="0 0 29 29" fill="none" xmlns="http://www.w3.org/2000/svg">
<path d="M25.5405 28.4328L15.8581 18.7525C13.744 20.1472 11.1874 20.7077 8.68367 20.3256C6.17989 19.9434 3.907 18.6457 2.30513 16.6839C0.703268 14.722 -0.113591 12.2355 0.0127382 9.70586C0.139067 7.17624 1.1996 4.7835 2.98896 2.99098C4.78115 1.20094 7.17388 0.139719 9.70372 0.0128456C12.2336 -0.114027 14.7205 0.70248 16.6828 2.30422C18.6451 3.90597 19.9431 6.17896 20.3255 8.68295C20.7078 11.1869 20.1473 13.7437 18.7525 15.8581L28.4308 25.5425L25.5405 28.4328ZM10.2197 4.08778C8.59291 4.0867 7.03228 4.73193 5.88117 5.88151C4.73007 7.03109 4.08278 8.59087 4.0817 10.2177C4.08062 11.8445 4.72585 13.4052 5.87543 14.5563C7.02501 15.7074 8.58478 16.3547 10.2116 16.3557C11.0171 16.3563 11.8149 16.1981 12.5593 15.8904C13.3037 15.5826 13.9802 15.1312 14.5502 14.562C15.1202 13.9928 15.5724 13.3169 15.8812 12.5729C16.1899 11.8289 16.3491 11.0314 16.3497 10.2258C16.3502 9.4203 16.1921 8.62256 15.8843 7.87814C15.5765 7.13373 15.1252 6.45723 14.5559 5.88726C13.9867 5.31729 13.3108 4.86501 12.5668 4.55626C11.8228 4.2475 11.0253 4.08832 10.2197 4.08778Z" />
</svg>
