<svg width="30" height="30" viewBox="0 0 30 30" fill="none" xmlns="http://www.w3.org/2000/svg">
<path d="M0 2.74497C0 1.22772 1.22955 0 2.74863 0H4.58105C6.09646 0 7.32785 1.22772 7.32785 2.74497V26.5334C7.32785 28.0489 6.09646 29.2766 4.57922 29.2766H2.7468C1.22955 29.2766 0 28.0489 0 26.5334V2.74497ZM2.74863 1.82876C2.50564 1.82876 2.2726 1.92528 2.10077 2.09711C1.92895 2.26893 1.83242 2.50197 1.83242 2.74497V26.5334C1.83291 26.7761 1.92965 27.0087 2.10142 27.1801C2.27319 27.3516 2.50595 27.4478 2.74863 27.4478H4.58105C4.82373 27.4473 5.0563 27.3506 5.22773 27.1788C5.39915 27.0071 5.49543 26.7743 5.49543 26.5316V2.7468C5.49543 2.5038 5.3989 2.27076 5.22708 2.09894C5.05525 1.92712 4.82221 1.83059 4.57922 1.83059H2.7468L2.74863 1.82876ZM9.15844 2.74497C9.15844 1.22772 10.3898 0 11.9071 0H13.7395C15.2567 0 16.4863 1.22772 16.4863 2.74497V26.5334C16.4863 28.0489 15.2567 29.2766 13.7377 29.2766H11.9052C10.3898 29.2766 9.15844 28.0489 9.15844 26.5334V2.74497ZM11.9071 1.82876C11.6641 1.82876 11.431 1.92528 11.2592 2.09711C11.0874 2.26893 10.9909 2.50197 10.9909 2.74497V26.5334C10.9913 26.7761 11.0881 27.0087 11.2599 27.1801C11.4316 27.3516 11.6644 27.4478 11.9071 27.4478H13.7395C13.9825 27.4478 14.2155 27.3513 14.3873 27.1795C14.5592 27.0077 14.6557 26.7746 14.6557 26.5316V2.7468C14.6557 2.5038 14.5592 2.27076 14.3873 2.09894C14.2155 1.92712 13.9825 1.83059 13.7395 1.83059H11.9071V1.82876ZM25.1371 7.61737C25.0534 7.25463 24.8969 6.91268 24.677 6.61225C24.4572 6.31183 24.1786 6.0592 23.8582 5.86968C23.5377 5.68017 23.1821 5.55772 22.813 5.50976C22.4438 5.46181 22.0687 5.48935 21.7105 5.59072L20.3454 5.97552C19.6788 6.16408 19.1082 6.59768 18.7479 7.18936C18.3877 7.78104 18.2645 8.48704 18.403 9.16577L22.0733 27.1235C22.1483 27.4874 22.2963 27.8324 22.5084 28.1375C22.7205 28.4426 22.9922 28.7016 23.3072 28.8987C23.6222 29.0959 23.9738 29.2271 24.341 29.2845C24.7081 29.3419 25.083 29.3242 25.4432 29.2326L27.2481 28.7745C28.6957 28.408 29.5826 26.9531 29.2491 25.5L25.1371 7.61554V7.61737ZM22.2089 7.35167C22.3283 7.31768 22.4534 7.3083 22.5765 7.32412C22.6997 7.33993 22.8183 7.38061 22.9252 7.44367C23.0322 7.50674 23.1252 7.59087 23.1986 7.69098C23.272 7.79108 23.3243 7.90506 23.3524 8.026L27.4625 25.9104C27.5153 26.1432 27.4751 26.3875 27.3505 26.5911C27.2259 26.7947 27.0268 26.9417 26.7955 27.0007L24.9905 27.4588C24.8706 27.4894 24.7457 27.4953 24.6234 27.4763C24.5011 27.4572 24.3839 27.4136 24.2789 27.348C24.1739 27.2824 24.0833 27.1962 24.0126 27.0946C23.9418 26.9931 23.8924 26.8782 23.8673 26.757L20.1969 8.79928C20.1512 8.57324 20.1924 8.33826 20.3123 8.14125C20.4322 7.94425 20.622 7.7997 20.8438 7.73648L22.2089 7.35167Z" />
</svg>
